<svg width="52" height="52" viewBox="0 0 52 52" fill="none" xmlns="http://www.w3.org/2000/svg">
<path d="M26 51C24.0325 51 22.4375 49.405 22.4375 47.4375V29.5625H4.5625C2.59499 29.5625 1 27.9675 1 26C1 24.0325 2.59499 22.4375 4.5625 22.4375H22.4375V4.5625C22.4375 2.59499 24.0325 1 26 1C27.9675 1 29.5625 2.59499 29.5625 4.5625V22.4375H47.4375C49.405 22.4375 51 24.0325 51 26C51 27.9675 49.405 29.5625 47.4375 29.5625H29.5625V47.4375C29.5625 49.405 27.9675 51 26 51Z" fill="#4C9DB0" stroke="#4C9DB0"/>
</svg>
