<svg width="575" height="156" viewBox="0 0 575 156" fill="none" xmlns="http://www.w3.org/2000/svg">
<path d="M163.733 2.17H175.083V154.975H163.733V2.17Z" fill="#FCF3F6"/>
<path d="M43.3872 75.298H98.7952V85.776H43.3872V75.298Z" fill="#FCF3F6"/>
<path d="M1 2.17V154.976H12.35V85.776H12.365V75.297H12.351V12.647H130.047V2.17" fill="#FCF3F6"/>
<path d="M516.45 1.58H426.004V154.386H437.354V97.41H437.437V86.935H437.355V12.06H515.578C543.083 12.06 561.855 24.72 561.855 48.95V49.388C561.855 72.088 542.645 86.934 514.267 86.934H478.47V97.41H513.612C545.482 97.41 573.207 80.82 573.207 48.732V48.296C573.207 18.826 550.067 1.581 516.449 1.581" fill="#FCF3F6"/>
<path d="M359.968 86.935L306.978 1H296.063L201.676 154.897H213.464L301.304 13.444L347.09 86.934" fill="#FCF3F6"/>
<path d="M377.403 115.21H364.706L389.433 154.896H401.873" fill="#FCF3F6"/>
</svg>
