<svg width="709" height="209" viewBox="0 0 709 209" fill="none" xmlns="http://www.w3.org/2000/svg">
<path d="M533.36 189.451C530.651 189.451 528.594 188.846 527.188 187.636C525.781 186.475 525.052 184.999 525 183.208C524.948 181.466 525.599 179.748 526.953 178.054C528.151 176.651 529.584 174.836 531.25 172.61C532.917 170.433 534.584 168.134 536.251 165.714C537.917 163.295 542.431 157.626 543.629 155.497C522.013 143.195 506.883 118.042 506.883 93.4952C506.883 51.6385 547.459 19.6832 587.941 19.6832C628.383 19.6832 668.998 51.6529 668.998 93.4952C668.998 138.921 623.549 168.43 581.456 167.307C576.195 170.84 570.393 175.901 564.299 178.998C558.205 182.095 552.397 184.611 546.876 186.547C541.355 188.483 536.85 189.451 533.36 189.451ZM541.563 177.401C543.907 176.482 546.876 175.078 550.47 173.191C554.064 171.304 557.788 169.199 561.642 166.876C566.409 164.063 571.084 159.85 576.408 157.947C577.815 157.415 579.301 157.465 580.916 157.465C583.251 157.538 585.603 157.465 587.941 157.465C628.47 157.465 658.191 129.026 658.191 93.4952C658.191 54.1288 621.123 30.509 587.941 30.509C554.684 30.509 518.771 55.9466 518.771 93.4952C518.771 122.528 537.144 140.243 552.815 148.608C555.316 149.721 556.181 151.44 556.598 153.037C557.015 154.634 555.47 157.585 554.376 159.472C553.022 161.795 551.017 164.601 548.36 167.892C545.704 171.231 543.282 174.159 541.094 176.675C540.886 176.917 540.834 177.111 540.938 177.256C541.042 177.449 541.251 177.498 541.563 177.401Z" fill="#AFE874"/>
<path d="M541.563 177.401C543.907 176.482 546.876 175.078 550.47 173.191C554.064 171.304 557.788 169.199 561.642 166.876C566.409 164.063 571.084 159.85 576.408 157.947C577.815 157.415 579.301 157.465 580.916 157.465C583.251 157.538 585.603 157.465 587.941 157.465C628.47 157.465 658.191 129.026 658.191 93.4952C658.191 54.1288 621.123 30.509 587.941 30.509C554.684 30.509 518.771 55.9466 518.771 93.4952C518.771 122.528 537.144 140.243 552.815 148.608C555.316 149.721 556.181 151.44 556.598 153.037C557.015 154.634 555.47 157.585 554.376 159.472C553.022 161.795 551.017 164.601 548.36 167.892C545.704 171.231 543.282 174.159 541.094 176.675C540.886 176.917 540.834 177.111 540.938 177.256C541.042 177.449 541.251 177.498 541.563 177.401Z" fill="#74C9E8"/>
<path d="M591.74 146.148C589.293 146.148 586.923 145.27 584.632 143.516C582.392 141.714 581.273 139.84 581.273 137.896C581.273 135.715 581.767 133.676 582.757 131.779C583.798 129.834 584.293 127.677 584.241 125.306C584.241 124.452 583.798 123.622 582.913 122.816C582.08 121.962 580.517 120.8 578.226 119.33C575.987 117.86 572.758 115.679 568.54 112.786C564.582 110.13 562.603 107.024 562.603 103.468C562.603 102.14 562.915 101.002 563.54 100.053C564.165 99.0573 564.79 98.1089 565.415 97.2079C566.04 96.3068 566.352 95.3584 566.352 94.3625C566.352 93.4615 565.858 92.5842 564.868 91.7306C563.879 90.877 562.473 89.7151 560.65 88.245L549.245 79.2111C543.777 74.8957 539.558 70.6988 536.59 66.6205C533.674 62.5422 532.45 58.6298 532.918 54.8835C533.491 51.3742 535.418 47.9598 538.699 44.6402C542.032 41.2733 546.302 38.2382 551.51 35.5352C556.718 32.7847 562.499 30.6032 568.852 28.9909C575.258 27.3785 581.793 26.5723 588.459 26.5723C597.521 26.5723 605.645 27.829 612.832 30.3424C620.018 32.8084 625.07 36.1042 627.986 40.23C626.684 42.6959 624.81 45.0196 622.362 47.201C619.966 49.335 617.31 51.3031 614.394 53.1051C611.478 54.9072 608.613 56.4958 605.801 57.8711C603.041 59.2463 600.645 60.3844 598.614 61.2855C599.708 62.8504 600.593 64.2731 601.27 65.5535C601.947 66.8339 602.286 68.0669 602.286 69.2524C602.286 71.5287 601.609 73.4019 600.255 74.8719C598.953 76.342 597.026 77.0771 594.474 77.0771C592.443 77.0771 590.438 76.6029 588.459 75.6544C586.532 74.6585 584.71 73.6864 582.991 72.7379C581.273 71.7421 579.788 71.2441 578.539 71.2441C577.445 71.2441 576.481 71.5287 575.648 72.0977C574.867 72.6194 574.476 73.3781 574.476 74.374C574.476 75.2276 574.997 76.3183 576.039 77.6462C577.132 78.9266 578.46 80.207 580.023 81.4874C581.637 82.7203 583.252 83.7636 584.866 84.6172C586.48 85.4234 587.834 85.8265 588.928 85.8265C590.438 85.8265 592.053 85.4234 593.771 84.6172C595.542 83.7636 597.26 82.9337 598.927 82.1276C600.593 81.274 602.078 80.8472 603.38 80.8472C605.567 80.8472 608.119 81.5585 611.035 82.9812C613.951 84.4038 616.79 86.2059 619.55 88.3873C622.31 90.5687 624.575 92.8213 626.346 95.145C628.169 97.4213 629.08 99.4367 629.08 101.191C629.08 103.61 628.116 106.692 626.19 110.439C624.315 114.185 621.867 118.121 618.847 122.247C615.826 126.373 612.597 130.237 609.16 133.842C605.775 137.446 602.52 140.41 599.396 142.733C596.271 145.01 593.719 146.148 591.74 146.148Z" fill="#AFE874"/>
<path d="M547.108 132.969C543.976 132.969 541.25 132.328 538.928 131.047C536.641 129.798 534.864 128.1 533.598 125.953C532.331 123.839 531.698 121.5 531.698 118.937C531.698 116.47 532.402 114.116 533.809 111.873L574.602 47.0955C576.044 44.7569 577.944 42.9949 580.301 41.8095C582.694 40.6242 585.209 40.0315 587.848 40.0315C590.451 40.0315 592.931 40.6242 595.289 41.8095C597.646 42.9949 599.563 44.7569 601.041 47.0955L641.834 111.873C642.537 112.994 643.065 114.164 643.417 115.381C643.769 116.567 643.944 117.752 643.944 118.937C643.944 121.5 643.311 123.839 642.045 125.953C640.778 128.1 638.984 129.798 636.662 131.047C634.375 132.328 631.666 132.969 628.535 132.969H547.108ZM548.638 122.782H626.952C628.465 122.782 629.661 122.317 630.54 121.388C631.455 120.459 631.912 119.386 631.912 118.168C631.912 117.335 631.684 116.518 631.226 115.718L591.964 53.1023C591.542 52.3655 590.944 51.8369 590.17 51.5165C589.431 51.1962 588.657 51.036 587.848 51.036C587.038 51.036 586.247 51.1962 585.473 51.5165C584.699 51.8369 584.083 52.3655 583.626 53.1023L544.416 115.621C544.17 116.038 543.994 116.47 543.888 116.919C543.818 117.367 543.783 117.784 543.783 118.168C543.783 119.386 544.223 120.459 545.102 121.388C545.982 122.317 547.16 122.782 548.638 122.782ZM587.9 99.0426C584.593 99.0426 582.869 97.5369 582.729 94.5254L581.99 72.6125C581.92 71.1068 582.43 69.8734 583.52 68.9123C584.611 67.9192 586.053 67.4226 587.848 67.4226C589.607 67.4226 591.032 67.9192 592.122 68.9123C593.248 69.8734 593.776 71.1228 593.705 72.6606L592.914 94.4774C592.773 97.5209 591.102 99.0426 587.9 99.0426ZM587.9 115.189C586.071 115.189 584.505 114.676 583.204 113.651C581.937 112.626 581.304 111.329 581.304 109.759C581.304 108.157 581.937 106.843 583.204 105.818C584.505 104.761 586.071 104.232 587.9 104.232C589.73 104.232 591.26 104.745 592.492 105.77C593.758 106.795 594.391 108.125 594.391 109.759C594.391 111.361 593.758 112.674 592.492 113.699C591.225 114.692 589.695 115.189 587.9 115.189Z" fill="#2B4B56"/>
<path d="M227.322 109.96V110.544C227.322 111.224 229.752 111.565 234.613 111.565H239.136C243.571 111.565 245.789 111.257 245.789 110.641V110.058C245.789 107.173 243.287 99.7833 238.285 87.8884C237.611 86.2679 237.15 85.4576 236.901 85.4576C236.83 85.4576 236.635 85.8141 236.316 86.5272C236.032 87.2078 235.677 87.9695 235.252 88.8122C229.965 99.2809 227.322 106.33 227.322 109.96ZM269.47 131.498V132.47C269.47 135.387 268.566 137.38 266.756 138.45C265.586 139.13 263.581 139.471 260.743 139.471H259.465C256.556 139.471 254.605 138.677 253.612 137.089C253.115 136.311 252.565 134.042 251.962 130.282C251.359 126.522 250.312 123.93 248.822 122.503C247.332 121.077 244.529 120.364 240.414 120.364C231.047 120.364 225.548 121.029 223.916 122.358C222.284 123.687 221.113 126.393 220.404 130.477C219.694 134.528 219.162 136.797 218.807 137.283C217.885 138.579 216.04 139.228 213.273 139.228C210.505 139.228 208.59 138.547 207.525 137.186C206.496 135.824 205.982 134.026 205.982 131.789C205.982 130.785 207.472 127.56 210.452 122.115C210.736 121.628 213.415 114.676 218.488 101.258C223.561 87.8074 226.79 79.7694 228.174 77.1441C229.593 74.4864 230.959 72.7849 232.271 72.0394C233.584 71.2939 235.535 70.9212 238.125 70.9212C240.751 70.9212 242.649 71.5046 243.82 72.6714C244.99 73.8058 246.48 76.1556 248.29 79.7208C250.135 83.2861 252.654 89.1363 255.847 97.2714C259.075 105.407 261.435 111.565 262.925 115.746C264.415 119.894 265.284 122.244 265.532 122.795C268.158 128.305 269.47 131.206 269.47 131.498Z" fill="#2B4B56"/>
<path d="M287.251 139.665H283.207C280.262 139.665 278.169 139.179 276.927 138.207C275.685 137.234 275.065 135.776 275.065 133.831C275.065 133.345 275.224 132.356 275.544 130.866L275.916 129.358C276.839 125.664 277.3 122.763 277.3 120.656V116.572L277.353 114.725V108.113L277.406 105.293V100.577C277.406 88.4556 277.353 81.86 277.247 80.7904C277.14 79.6884 276.626 78.1165 275.703 76.0746C274.781 74.0003 274.32 72.7362 274.32 72.2825V71.456C274.32 70.0623 275.065 69.1224 276.555 68.6362C278.08 68.1501 280.635 67.907 284.218 67.907C287.837 67.907 289.948 69.1224 290.551 71.5532C290.622 71.8449 290.657 75.7991 290.657 83.4157L290.604 84.388C290.604 85.0038 290.604 85.6197 290.604 86.2355L290.551 89.1038V93.771L290.498 95.6185C290.498 110.917 290.657 119.635 290.977 121.774C291.331 123.913 292.254 126.587 293.744 129.796C295.27 132.972 296.032 134.625 296.032 134.755C296.032 138.028 293.105 139.665 287.251 139.665Z" fill="#2B4B56"/>
<path d="M333.983 107.481V107.189L333.93 106.898V106.363C333.859 105.974 333.823 105.698 333.823 105.536C333.823 103.656 332.901 101.987 331.056 100.529C329.211 99.0379 327.206 98.2924 325.042 98.2924H323.446C320.466 98.2924 317.964 99.3458 315.942 101.452C313.92 103.559 312.909 105.909 312.909 108.502V109.28C312.909 110.252 313.6 110.738 314.984 110.738L316.315 110.884H319.667L319.933 110.836L329.672 110.349L330.79 110.252C332.918 110.252 333.983 109.328 333.983 107.481ZM343.349 116.329C340.404 117.399 334.657 117.934 326.107 117.934C317.592 117.934 313.334 119.1 313.334 121.434C313.334 124.513 314.629 126.928 317.219 128.678C319.809 130.428 323.499 131.303 328.289 131.303C330.133 131.303 332.475 130.882 335.313 130.039C338.151 129.196 340.369 128.775 341.965 128.775C343.917 128.775 344.892 130.201 344.892 133.053C344.892 134.868 342.746 136.602 338.453 138.255C334.196 139.908 330.062 140.735 326.053 140.735H324.829C320.466 140.735 316.616 140.135 313.281 138.936C309.982 137.704 307.356 136.165 305.405 134.317C303.454 132.47 301.839 130.007 300.562 126.928C299.32 123.849 298.7 120.429 298.7 116.67V115.503C298.7 107.854 300.811 101.825 305.032 97.4173C307.268 95.0837 310.053 93.3011 313.388 92.0695C316.723 90.8054 320.235 90.1734 323.925 90.1734H326.426C328.945 90.1734 331.57 90.6272 334.302 91.5347C339.588 93.2849 343.26 96.7205 345.318 101.841C346.347 104.402 346.861 106.817 346.861 109.085V110.155C346.861 113.428 345.691 115.486 343.349 116.329Z" fill="#2B4B56"/>
<path d="M357.777 91.3402H359.64C363.401 91.3726 365.991 92.4908 367.41 94.6948C367.871 95.4078 368.314 95.7643 368.74 95.7643C369.201 95.7643 370.106 95.3754 371.454 94.5975C372.802 93.8197 374.222 93.1066 375.712 92.4584C377.202 91.7778 379.118 91.4374 381.459 91.4374C383.801 91.4374 385.539 91.9236 386.675 92.8959C387.845 93.8359 388.431 95.0189 388.431 96.445C388.431 97.8386 387.934 99.1999 386.941 100.529C385.947 101.825 384.652 102.473 383.056 102.473L376.51 101.841C375.41 101.841 374.115 102.263 372.625 103.105C371.17 103.948 370 105.277 369.113 107.092C368.226 108.907 367.782 111.759 367.782 115.649C367.782 119.505 368.261 123.087 369.219 126.393C370.177 129.634 370.656 132.162 370.656 133.977C370.656 137.607 367.02 139.422 359.746 139.422H358.735C353.804 139.422 351.338 137.721 351.338 134.317C351.338 133.313 351.693 131.822 352.402 129.845C353.147 127.835 353.591 126.198 353.733 124.934C353.91 123.638 353.999 120.04 353.999 114.141C353.999 108.243 353.875 104.661 353.626 103.397C353.378 102.101 352.864 100.772 352.083 99.4106C351.303 98.0169 350.912 96.7367 350.912 95.5699C350.912 94.4031 351.515 93.4145 352.722 92.6042C353.928 91.7616 355.613 91.3402 357.777 91.3402Z" fill="#2B4B56"/>
<path d="M398.123 133.734C396.171 130.72 395.196 125.194 395.196 117.156C395.196 109.118 394.894 104.062 394.291 101.987C393.972 100.853 392.943 99.7509 391.204 98.6813C389.466 97.6118 388.597 96.2505 388.597 94.5975C388.597 92.9446 389.147 91.7778 390.246 91.0971C390.495 90.9351 391.204 90.5786 392.375 90.0276C393.546 89.4442 394.256 88.9904 394.504 88.6663C394.788 88.3098 395.32 86.754 396.1 83.9991C396.916 81.2117 397.732 79.2833 398.548 78.2137C399.4 77.1117 400.606 76.5607 402.167 76.5607H403.072C405.094 76.5607 406.584 77.1441 407.542 78.3109C408.039 78.9268 408.553 80.4501 409.085 82.8809C409.618 85.3117 410.345 87.0133 411.267 87.9857C412.19 88.958 414.106 89.8007 417.015 90.5137C419.96 91.1944 421.432 92.3126 421.432 93.8683C421.432 95.424 420.988 96.5098 420.101 97.1256C419.215 97.7414 417.476 98.3086 414.886 98.8272C412.296 99.3458 410.611 100.156 409.831 101.258C409.05 102.328 408.66 105.326 408.66 110.252L408.607 111.273C408.571 111.954 408.553 112.748 408.553 113.655V116.524C408.553 122.52 409.21 126.377 410.522 128.094C411.338 129.164 413.095 129.893 415.791 130.282C418.523 130.639 419.977 130.849 420.155 130.914C421.538 131.562 422.23 132.616 422.23 134.074V134.852C422.23 136.181 421.255 137.315 419.303 138.255C417.387 139.163 415.01 139.617 412.172 139.617H409.99C404.633 139.617 400.677 137.656 398.123 133.734Z" fill="#2B4B56"/>
<path d="M448.526 131.692C450.513 131.692 452.304 130.963 453.901 129.504C455.498 128.046 456.296 126.604 456.296 125.177C456.367 124.788 456.402 124.513 456.402 124.351L456.509 122.649C456.509 122.358 456.509 122.066 456.509 121.774L456.562 120.656V119.781C456.562 117.707 455.604 116.67 453.688 116.67H451.826L451.506 116.718H450.868C446.788 116.718 443.595 117.383 441.288 118.711C438.982 120.008 437.829 121.742 437.829 123.913V125.08C437.829 126.863 438.45 128.419 439.692 129.747C440.969 131.044 442.495 131.692 444.269 131.692L445.812 131.838H447.036C447.675 131.741 448.171 131.692 448.526 131.692ZM473.379 135.436C473.343 138.158 470.913 139.519 466.088 139.519C463.675 139.519 461.547 139.082 459.702 138.207C457.857 137.299 456.225 136.845 454.806 136.845C454.699 136.845 452.943 137.445 449.537 138.644C446.131 139.811 442.991 140.394 440.118 140.394C435.293 140.394 431.372 139.147 428.357 136.651C425.376 134.155 423.886 130.898 423.886 126.879V125.712C423.886 116.572 431.603 111.354 447.036 110.058C449.839 109.831 451.79 109.555 452.89 109.231C454.983 108.583 456.03 107.173 456.03 105.001C456.03 102.798 455.054 101.08 453.103 99.8481C451.932 99.1027 450.371 98.73 448.42 98.73C446.468 98.73 443.63 99.4754 439.905 100.966C436.215 102.425 433.607 103.154 432.082 103.154C430.556 103.154 429.368 102.668 428.516 101.696C427.665 100.723 427.239 99.5402 427.239 98.1466C427.239 95.7805 429.314 93.8035 433.465 92.2153C437.652 90.6272 442.211 89.8331 447.142 89.8331C456.58 89.8331 463.001 92.0695 466.407 96.5422C467.933 98.5193 468.908 100.756 469.334 103.251C469.795 105.715 470.026 109.879 470.026 115.746C470.026 121.58 470.15 125.129 470.398 126.393C470.682 127.657 471.25 129.051 472.101 130.574C472.953 132.065 473.379 133.345 473.379 134.415V135.436Z" fill="#2B4B56"/>
<path d="M50.396 105.631C50.396 109.307 50.9298 112.664 51.9972 115.701C53.1002 118.707 54.3633 121.105 55.7866 122.895C57.2454 124.653 59.4514 126.204 62.4046 127.547C65.3578 128.89 68.4356 129.561 71.6379 129.561C74.8758 129.561 77.402 128.762 79.2166 127.163C81.0668 125.565 81.9919 123.614 81.9919 121.312C81.9919 119.01 80.7822 116.788 78.3627 114.646C75.9788 112.472 74.7868 110.762 74.7868 109.515C74.7868 109.067 75.0359 108.62 75.534 108.172C76.8149 107.021 79.7148 106.446 84.2335 106.446C88.7879 106.446 92.008 106.861 93.8938 107.693C95.7796 108.492 96.7225 109.883 96.7225 111.865C96.7225 124.43 95.5127 131.991 93.0932 134.548C91.5632 136.179 88.5033 137.538 83.9133 138.625C79.359 139.712 74.4844 140.255 69.2895 140.255C58.6153 140.255 50.3427 137.202 44.4718 131.096C41.8744 128.378 39.7573 124.749 38.1206 120.209C36.4839 115.638 35.6655 110.682 35.6655 105.343C35.6655 88.9418 42.7106 78.2315 56.8006 73.212C60.8924 71.7414 65.5891 71.006 70.8907 71.006H72.9722C79.8393 71.006 84.6961 71.6614 87.5426 72.9723C90.3891 74.2511 92.3104 75.6099 93.3067 77.0486C94.303 78.4553 94.8011 79.5423 94.8011 80.3096C94.8011 82.6435 94.303 84.242 93.3067 85.1052C92.346 85.9365 91.4921 86.3521 90.7449 86.3521C90.0332 86.3521 87.3469 85.5368 82.6858 83.9063C78.0602 82.2758 74.1108 81.4605 70.8373 81.4605C64.0413 81.4605 58.8109 83.7305 55.1461 88.2704C51.9794 92.1708 50.396 97.9576 50.396 105.631Z" fill="#2B4B56"/>
<path d="M136.918 107.549V107.261L136.864 106.973V106.446C136.793 106.062 136.757 105.79 136.757 105.631C136.757 103.776 135.832 102.13 133.982 100.691C132.132 99.2204 130.122 98.4851 127.951 98.4851H126.35C123.361 98.4851 120.853 99.5242 118.825 101.602C116.797 103.68 115.782 105.998 115.782 108.556V109.323C115.782 110.282 116.476 110.762 117.864 110.762L119.198 110.906H122.561L122.828 110.858L132.594 110.378L133.715 110.282C135.85 110.282 136.918 109.371 136.918 107.549ZM146.311 116.277C143.358 117.332 137.594 117.86 129.019 117.86C120.479 117.86 116.209 119.01 116.209 121.312C116.209 124.35 117.508 126.731 120.106 128.458C122.703 130.184 126.403 131.048 131.207 131.048C133.057 131.048 135.405 130.632 138.252 129.801C141.098 128.969 143.322 128.554 144.923 128.554C146.88 128.554 147.859 129.961 147.859 132.774C147.859 134.564 145.706 136.275 141.401 137.905C137.131 139.536 132.986 140.351 128.965 140.351H127.738C123.361 140.351 119.501 139.76 116.156 138.577C112.847 137.362 110.214 135.843 108.257 134.021C106.3 132.199 104.681 129.769 103.4 126.731C102.155 123.694 101.532 120.321 101.532 116.613V115.462C101.532 107.917 103.649 101.97 107.883 97.6219C110.125 95.32 112.918 93.5616 116.263 92.3467C119.607 91.0998 123.13 90.4764 126.83 90.4764H129.339C131.865 90.4764 134.498 90.924 137.238 91.8191C142.539 93.5456 146.222 96.9345 148.286 101.986C149.318 104.512 149.833 106.893 149.833 109.131V110.186C149.833 113.416 148.659 115.446 146.311 116.277Z" fill="#2B4B56"/>
<path d="M177.807 132.198H178.874C182.183 132.198 184.869 130.936 186.933 128.41C188.997 125.852 190.029 122.767 190.029 119.154L190.135 118.147L190.189 116.661V113.543C190.189 109.099 189.121 105.439 186.986 102.561C184.852 99.684 182.005 98.2453 178.447 98.2453H176.846C173.43 98.2453 170.744 99.716 168.787 102.657C166.83 105.567 165.851 109.675 165.851 114.982C165.851 120.289 166.883 124.493 168.947 127.595C171.011 130.664 173.964 132.198 177.807 132.198ZM179.034 140.735H178.073C170.21 140.735 163.805 138.417 158.86 133.781C154.626 129.785 152.508 123.71 152.508 115.558V114.694L152.562 113.831C152.597 110.41 153.22 107.149 154.43 104.048C156.849 97.9416 161.35 93.8013 167.933 91.6273C171.242 90.5403 174.747 89.9968 178.447 89.9968L179.408 90.0448C187.022 90.0448 193.249 92.4106 198.088 97.1423C202.215 101.203 204.279 106.734 204.279 113.735V114.598C204.279 117.987 203.709 121.376 202.571 124.765C200.4 131.287 195.935 135.923 189.175 138.673C185.759 140.047 182.379 140.735 179.034 140.735Z" fill="#2B4B56"/>
</svg>
