<svg width="42" height="42" viewBox="0 0 42 42" fill="none" xmlns="http://www.w3.org/2000/svg">
<path d="M39.75 39.75L27.25 27.25M2.25 16.8333C2.25 18.7484 2.62721 20.6448 3.36009 22.4141C4.09297 24.1835 5.16717 25.7911 6.52136 27.1453C7.87555 28.4995 9.4832 29.5737 11.2525 30.3066C13.0219 31.0395 14.9182 31.4167 16.8333 31.4167C18.7484 31.4167 20.6448 31.0395 22.4141 30.3066C24.1835 29.5737 25.7911 28.4995 27.1453 27.1453C28.4995 25.7911 29.5737 24.1835 30.3066 22.4141C31.0395 20.6448 31.4167 18.7484 31.4167 16.8333C31.4167 14.9182 31.0395 13.0219 30.3066 11.2525C29.5737 9.4832 28.4995 7.87555 27.1453 6.52136C25.7911 5.16717 24.1835 4.09297 22.4141 3.36009C20.6448 2.62721 18.7484 2.25 16.8333 2.25C14.9182 2.25 13.0219 2.62721 11.2525 3.36009C9.4832 4.09297 7.87555 5.16717 6.52136 6.52136C5.16717 7.87555 4.09297 9.4832 3.36009 11.2525C2.62721 13.0219 2.25 14.9182 2.25 16.8333Z" stroke="#4C9DB0" stroke-width="4.16667" stroke-linecap="round" stroke-linejoin="round"/>
</svg>
