<svg width="360" height="360" viewBox="0 0 360 360" fill="none" xmlns="http://www.w3.org/2000/svg">
<rect width="360" height="360" rx="180" fill="#66A3FF"/>
<path fill-rule="evenodd" clip-rule="evenodd" d="M168.164 20.2671C119.449 23.0606 68.9714 52.7198 43.7368 95.024C-24.9777 210.221 64.796 349.867 193.867 339.45C255.855 334.447 307.837 293.74 329.643 236.514C371.185 127.5 281.77 13.7543 168.164 20.2671ZM113.439 151.37C114.717 149.289 126.346 139.425 137.035 130.412C137.748 129.811 138.457 129.214 139.157 128.623C145.923 122.922 151.988 117.81 154.345 115.588L179.108 93.7521L247.189 150.846L235.591 152.198C232.362 159.157 232.668 175.941 232.888 188.004C232.935 190.585 232.978 192.95 232.981 194.956C232.988 198.347 233.129 201.448 233.258 204.286C233.822 216.695 234.158 224.079 222.007 228.726C214.175 229.348 206.494 227.825 203.301 223C199.345 215.594 199.407 210.777 199.649 191.853C199.721 186.249 199.808 179.408 199.812 170.897C199.812 169.097 199.832 167.492 199.849 166.062V166.061C199.92 160.26 199.956 157.332 198.504 155.876C197.026 154.393 194.005 154.434 187.909 154.519C185.482 154.552 182.568 154.592 179.07 154.546C176.802 154.544 174.763 154.503 172.932 154.466C159.526 154.197 157.242 154.151 157.337 171.209C156.691 183.547 156.605 195.078 156.529 205.309C156.485 211.238 156.444 216.732 156.3 221.692C155.329 222.934 154.315 223.995 153.254 224.892C147.519 229.734 140.365 229.763 130.763 227.202C129.741 225.818 128.918 224.851 128.257 224.074C125.749 221.123 125.561 220.902 125.6 211.046L125.739 162.804C125.873 151.077 125.487 151.086 113.474 151.369L113.439 151.37ZM321.773 213.981L321.771 213.981C320.018 214.729 318.141 215.53 316.395 216.687C314.768 217.767 313.14 219.011 311.476 220.282C304.252 225.801 296.346 231.842 284.861 227.207C280.483 225.44 277.319 222.841 274.236 220.308C267.525 214.793 261.197 209.592 243.553 213.985L243.64 161.823C245.125 161.812 246.503 161.825 247.799 161.838H247.801C254.597 161.904 259.142 161.948 265.175 158.257C265.447 150.631 258.41 145.369 251.558 140.246C249.7 138.857 247.855 137.477 246.174 136.064L191.982 89.8678L191.754 89.6411C181.02 78.97 179.111 77.0726 160.975 95.3627L142.767 110.726C141.237 112.019 140.234 112.974 139.316 113.848C137.922 115.175 136.725 116.315 134.176 118.169C132.084 119.691 130.713 121.029 129.303 122.405C128.052 123.626 126.772 124.876 124.931 126.309C121.955 128.626 119.276 131.037 116.573 133.469C113.372 136.349 110.138 139.258 106.341 142.076C99.8281 146.516 94.6866 151.83 95.6766 159.145C100.208 161.502 103.12 161.503 106.979 161.505C109.279 161.507 111.915 161.508 115.432 162.008L115.287 213.327C97.1507 212.46 87.9554 218.586 80.6674 223.441C71.4116 229.607 65.2322 233.723 47.7207 218.864C44.6976 216.299 42.4582 215.312 40.0096 214.232C38.6613 213.638 37.2496 213.016 35.6086 212.086L33.9233 210.998C28.5769 187.815 29.2427 160.332 35.9883 137.894C55.3018 73.6475 110.939 29.6885 180.412 30.1905C204.628 30.3652 229.845 37.5444 247.803 46.4753C283.217 64.0885 313.207 98.7858 323.926 137.458C328.749 154.86 333.825 196.493 325.441 212.235C324.366 212.875 323.105 213.413 321.773 213.981ZM277.947 292.594C269.885 299.717 260.749 307.788 243.967 315.516C206.313 332.855 154.759 335.156 117.146 315.33C94.0485 303.155 88.0639 297.445 82.4012 292.043C79.5021 289.277 76.6872 286.591 71.7033 283.159C71.7764 283.112 71.8627 283.041 71.9529 282.967C72.2108 282.756 72.5013 282.518 72.61 282.722L85.0248 277.805C87.0123 276.658 88.857 275.081 90.7434 273.467C97.9017 267.345 105.662 260.708 124.116 275.153C131.439 280.886 141.921 286.019 153.949 279.632C156.897 278.067 159.091 276.064 161.247 274.096C165.701 270.03 169.992 266.113 180.437 266.512C186.963 266.762 192.699 270.628 198.49 274.531C208.925 281.565 219.544 288.722 235.302 275.078C241.343 269.848 253.073 264.031 264.16 269.4C266.637 270.6 268.439 271.986 270.364 273.466C273.098 275.569 276.082 277.864 281.609 280.092L289.226 283.354L289.226 283.356C285.254 286.139 281.718 289.263 277.949 292.593L277.947 292.594ZM249.591 223.865C244.565 224.935 241.533 227.494 237.89 230.568C235.412 232.659 232.652 234.988 228.79 237.25C212.71 243.138 204.858 237.003 197.276 231.08C190.747 225.979 184.418 221.034 173.207 224.061C168.749 225.264 166.015 227.898 163.115 230.692C159.924 233.766 156.532 237.035 150.42 238.808C148.711 239.304 146.967 239.619 145.223 239.771C136.945 240.494 128.686 237.561 124.248 233.078C105.441 218.658 101.769 221.617 93.7303 228.095C90.7509 230.496 87.1715 233.38 81.9993 236.042C62.7607 245.943 49.6865 234.788 42.1528 228.361C40.1227 226.629 38.495 225.24 37.2573 224.699C38.3243 227.159 39.1364 229.455 39.9404 231.728C41.1502 235.148 42.3415 238.516 44.3551 242.312C45.4242 244.328 46.3878 246.266 47.34 248.181C49.1108 251.743 50.8421 255.225 53.1383 258.978C64.9109 278.22 74.3944 271.892 85.1605 264.708C90.2058 261.342 95.5328 257.787 101.509 256.588C114.833 253.915 122.406 259.82 129.06 265.009C136.794 271.041 143.288 276.105 156.133 265.608C156.662 265.175 157.19 264.733 157.719 264.29C161.619 261.022 165.694 257.607 172.496 256.295C188.221 253.262 196.823 259.595 204.177 265.01C211.37 270.307 217.369 274.725 227.674 268.635C228.539 268.124 229.535 267.171 230.746 266.012C235.807 261.168 244.622 252.731 263.243 257.992C268.571 259.498 272.653 262.086 276.554 264.56C282.991 268.642 288.938 272.413 299.186 270.499C302.802 266.216 308.93 255.806 312.612 249.178C315.545 243.897 317.454 238.908 319.47 233.642L319.47 233.64L319.471 233.637C320.593 230.708 321.748 227.69 323.133 224.483C321.045 225.857 319.121 227.509 317.13 229.219C313.03 232.74 308.645 236.505 301.958 238.596C290.035 242.324 281.817 238.807 273.734 233.11C273.049 232.627 272.313 232.078 271.528 231.492C266.238 227.542 258.714 221.925 249.591 223.865ZM190.992 163.957L167.164 163.962L167.202 214.61C177.494 211.472 180.212 211.549 191.108 213.64L190.992 163.957Z" fill="white"/>
</svg>
