<svg width="360" height="360" viewBox="0 0 360 360" fill="none" xmlns="http://www.w3.org/2000/svg">
<rect width="360" height="360" rx="180" fill="#888888"/>
<path fill-rule="evenodd" clip-rule="evenodd" d="M160.384 31.8773C206.91 24.6735 248.151 43.3184 274.632 65.0021L289.501 78.1663C291.545 80.0039 291.952 81.04 293.699 83.3237C299.07 90.3424 304.261 96.5595 309.258 105.149C342.182 161.726 332.963 230.851 295.997 274.535C283.908 288.821 273.809 297.727 255.523 308.784C197.488 343.876 118.03 332.266 76.2274 286.949C72.9539 283.4 70.0023 281.868 66.835 277.671C49.4102 254.585 36.7414 234.461 31.6247 200.761C22.1484 138.339 55.19 79.2903 104.186 51.2672C120.501 41.9355 138.14 35.3208 160.383 31.8766L160.384 31.8773ZM20.3597 191.131C26.1116 275.358 99.9525 345.911 191.065 339.608C275.847 333.742 345.609 260.576 339.644 168.411C334.342 86.502 258.378 12.2314 168.509 20.6536C145.5 22.8094 123.081 28.8656 106.044 38.2503C70.806 57.6595 43.9135 85.8585 30.2166 122.954C22.7255 143.241 18.7323 167.295 20.3604 191.13L20.3597 191.131Z" fill="white"/>
<path fill-rule="evenodd" clip-rule="evenodd" d="M76.6082 154.415C67.8273 151.891 68.5902 161.363 68.0597 168.506C64.9618 210.208 93.9664 252.4 129.965 270.723C178.562 295.46 249.826 277.679 270.133 219.219C285.308 175.536 260.612 127.561 218.848 115.177C150.882 95.0244 115.186 170.879 153.455 199.34C178.957 218.306 213.43 196.013 180.309 196.557C138.609 197.243 141.046 149.803 167.407 131.596C194.105 113.157 230.135 124.733 248.957 147.942C252.583 152.413 255.044 156.774 257.606 162.04C287.354 223.197 220.008 289.065 150.449 267.487C127.184 260.27 110.356 246.854 96.634 227.882C68.4554 188.922 81.5385 163.88 76.6082 154.415Z" fill="white"/>
<path fill-rule="evenodd" clip-rule="evenodd" d="M169.382 170.167C174.166 168.081 173.91 165.237 180.658 162.177C195.001 155.673 210.18 163.13 215.821 176.938C224.578 198.375 210.696 215.808 192.5 224.584C149.709 245.222 110.538 209.651 108.09 171.168C105.612 132.23 132.638 95.6071 172.575 86.1023C216.452 75.6594 240.639 99.8486 247.191 98.9298C253.917 97.9859 253.122 92.3108 246.996 88.5191C239.082 83.6219 231.792 79.9874 222.053 77.2632C132.978 52.3483 75.1069 142.513 105.757 201.281C118.671 226.041 145.053 244.85 176.941 240.096C230.565 232.1 242.139 179.05 213.195 156.923C194.5 142.632 162.83 149.38 169.382 170.167Z" fill="white"/>
</svg>
