<svg width="360" height="360" viewBox="0 0 360 360" fill="none" xmlns="http://www.w3.org/2000/svg">
<rect width="360" height="360" rx="180" fill="#FF9D70"/>
<path fill-rule="evenodd" clip-rule="evenodd" d="M172.224 208.862C192.985 211.697 226.241 221.206 246.449 227.336C262.003 232.054 261.911 239.908 273.017 247.493C281.116 253.025 295.12 260.447 303.588 264.137C298.306 274.135 284.648 287.896 275.891 294.483C260.36 279.941 259.796 277.701 247.304 263.828C231.155 245.894 235.238 250.273 209.171 242.94C201.155 240.684 198.96 238.14 193.808 234.277C183.381 226.459 180.387 216.058 172.226 208.862H172.224ZM40.3921 124.244C43.4837 120.536 47.4599 109.613 50.6474 104.512C54.224 97.6441 60.6549 89.9354 64.6405 85.2812C109.897 102.772 112.098 117.779 128.572 169.771C134.151 187.379 143.69 193.313 152.27 202.314C155.516 205.718 157.888 208.758 161.055 212.308C166.969 218.941 172.014 226.422 177.773 232.974C182.483 238.331 193.127 247.676 199.674 250.031C203.707 254.082 214.571 255.14 220.947 256.829C233.033 260.03 242.31 273.586 252.098 285.609C257.197 291.872 260.989 296.273 267.529 300.626C260.376 311.024 223.683 324.279 206.51 327.394C174.44 333.211 159.359 328.048 130.954 321.308C121.295 318.156 112.697 314.077 104.509 308.855C97.3848 304.312 87.8895 298.213 82.1297 292.486C53.3966 263.921 34.4153 235.202 31.0093 191.247C28.7658 162.295 33.5636 148.926 40.3921 124.244ZM220.154 209.686L207.974 206.635L214.069 177.32L226.373 179.226L220.154 209.686ZM198.017 203.259L180.068 199.871C181.835 186.921 189.127 157.156 192.713 144.095C202.781 138.265 219.919 131.431 229.095 125.847C236.591 132.6 252.601 153.972 259.918 159.974L247.074 216.42L230.268 212.151C232.246 202.903 233.995 193.938 236.137 184.577C239.681 169.092 239.628 170.833 224.141 167.851C211.087 165.337 208.032 157.937 204.138 174.305C202.065 183.022 198.785 194.567 198.017 203.259ZM309.316 255.059C275.633 241.862 275.444 232.243 257.468 220.598L268.031 172.048C281.908 184.785 285.435 174.355 273.992 162.389C262.383 147.221 246.348 127.603 233.109 113.621C229.235 113.972 188.914 134.182 180.455 138.442C164.348 146.552 165.164 158.05 179.379 152.171C176.289 166.815 173.724 182.899 169.406 196.557C169.315 196.842 168.759 196.681 168.636 196.717C165.211 197.732 165.523 197.833 163.631 200.901C157.645 189.414 145.028 183.834 139.991 170.695C122.726 125.658 121.738 91.603 72.1903 77.2289C82.9914 65.0873 94.4924 56.0761 110.851 47.5132C125.809 39.6828 142.929 33.5122 162.782 31.2696C207.747 26.1901 252.97 43.3288 279.126 67.6342C288.381 76.2343 296.348 84.9111 303.575 95.1559C325.371 126.053 333.818 165.873 327.81 204.257C325.598 218.386 316.287 247.144 309.316 255.058V255.059ZM168.507 20.265C86.1009 25.1054 11.856 100.961 20.721 192.286C23.6941 222.912 34.6242 253.734 53.9238 277.965C87.3989 319.994 137.152 343.197 193.059 339.644C301.074 332.779 375.78 214.132 322.27 105.99C294.582 50.0345 229.848 16.6617 168.507 20.265Z" fill="white"/>
</svg>
