<svg width="360" height="360" viewBox="0 0 360 360" fill="none" xmlns="http://www.w3.org/2000/svg">
<rect width="360" height="360" rx="180" fill="#FF758C"/>
<path fill-rule="evenodd" clip-rule="evenodd" d="M224.345 189.113C228.243 185.178 229.389 173.591 232.25 167.958C235.659 161.247 241.456 154.421 245.815 150.693C275.626 182.398 266.665 259.159 217.337 275.271C224.31 262.419 229.799 241.234 220.334 228.453C213.813 228.199 215.909 228.959 211.351 230.778C212.431 212.553 198.727 193.611 187.602 180.862C173.713 164.946 171.709 186.859 168.535 206.436C168.113 209.038 167.787 211.797 167.346 214.599L165.302 222.022C159.033 218.892 153.699 214.8 146.423 215.057C134.774 230.221 138.508 257.247 144.068 275.752C95.2816 257.19 84.368 196.441 111.627 155.79C117.06 165.427 118.697 170.41 125.968 176.776C130.77 180.982 141.587 191.816 148.637 186.42C153.766 173.629 137.541 157.026 157.683 129.923C168.471 115.406 178.025 102.313 178.204 77.9326C190.825 86.6278 207.855 105.59 212.202 126.793C215.381 142.304 210.162 149.433 210.21 162.867C210.248 173.709 216.414 186.815 224.344 189.114L224.345 189.113ZM220.756 166.633C219.351 149.073 237.777 117.63 194.152 76.7138C188.342 71.2636 178.919 60.3906 168.976 63.6979C163.606 80.9415 174.099 86.8003 152.303 119.341C135.654 144.199 137.111 139.994 136.536 171.632C131.562 166.488 128.72 165.359 124.35 157.018C120.14 148.985 120.974 144.272 120.038 141.519C118.518 137.051 120.37 139.465 116.933 137.166C107.456 133.436 94.6145 163.32 90.9057 174.528C85.0553 192.209 85.2501 213.189 90.2378 230.835C97.1242 255.2 115.394 274.79 136.173 284.236L154.652 290.406C160.635 290.749 165.478 288.125 160.7 281.255C149.64 265.352 144.199 247.87 152.658 227.937C157.115 231.69 168.711 235.912 175.222 234.06C176.984 229.471 180.796 200.143 182.582 191.33C187.525 196.145 195.947 209.842 198.707 217.749C204.51 234.38 195.657 240.615 195.847 253.905C204.197 252.457 208.181 246.032 214.77 243.141C214.548 263.504 208.64 269.787 199.131 279.513C183.7 295.299 214.906 295.724 242.165 272.927C302.152 222.757 258.814 137.133 247.156 136.375C238.176 135.791 221.852 165.281 220.755 166.634L220.756 166.633Z" fill="white"/>
<path fill-rule="evenodd" clip-rule="evenodd" d="M172.732 30.4775C217.354 27.7135 250.005 45.2691 280.736 69.4751C288.029 75.2201 291.907 81.4288 298.43 89.1714C303.423 95.0989 308.859 103.665 312.978 112.071C342.264 171.838 332.668 232.374 289.43 281.111C204.398 376.957 39.2258 323.267 30.4855 187.443C26.5021 125.539 62.3902 71.079 112.21 46.1358C129.486 37.4865 150.05 31.8818 172.732 30.4768L172.732 30.4775ZM20.5827 193.666C27.6343 277.655 101.7 347.444 194.859 339.362C231.304 336.2 254.629 323.432 280.388 304.339C285.835 300.302 286.26 299.132 290.751 294.53C303.741 281.223 316.17 266.334 324.15 248.967C326.12 244.678 328.218 239.316 329.982 234.595C354.572 168.766 331.748 100.969 284.928 59.7944C239.783 20.0926 163.593 4.72994 103.748 38.812C95.1568 43.7046 85.9707 49.2864 79.3209 54.6542C41.5278 85.1634 15.7481 136.08 20.5819 193.665L20.5827 193.666Z" fill="white"/>
</svg>
