<svg width="360" height="360" viewBox="0 0 360 360" fill="none" xmlns="http://www.w3.org/2000/svg">
<rect width="360" height="360" rx="180" fill="#AD93FB"/>
<path fill-rule="evenodd" clip-rule="evenodd" d="M279.458 291.682C263.487 303.325 260.501 308.58 236.227 318.557C182.933 340.462 127.198 329.352 84.0117 294.503L76.5598 288.567C74.6925 287.147 75.4217 287.398 74.1324 287.057C54.8835 261.648 42.664 249.467 34.0092 213.504C3.62695 87.2693 147.591 -25.3992 268.83 60.1841C287.687 73.495 307.63 96.2469 318.718 123.997C345.924 192.081 317.252 259.926 279.457 291.682L279.458 291.682ZM339.254 196.289C347.973 102.182 279.08 30.0886 196.391 20.9844C140.772 14.861 91.067 37.6896 56.4002 78.7372C-9.61047 156.896 19.0578 276.368 102.998 319.848C122.397 329.897 137.615 336.223 162.824 339.007C255.8 349.276 331.648 278.375 339.254 196.289Z" fill="white"/>
<path fill-rule="evenodd" clip-rule="evenodd" d="M183.723 91.4824C191.436 89.4578 202.971 91.1641 209.272 94.1357C232.195 104.946 224.053 129.56 229.26 132.878C234.04 135.924 240.645 130.756 249.919 140.404C261.51 152.46 255.8 171.838 241.189 176.674C232.17 179.659 197.311 178.252 185.561 178.241C171.06 178.226 142.147 180.452 130.261 175.085C113.992 167.739 107.479 152.82 112.715 137.13C117.618 122.444 130.617 114.584 149.391 115.13C156.322 115.331 156.269 114.281 159.232 110.001C165.233 101.333 169.241 95.2836 183.723 91.4824ZM256.044 179.77C261.019 176.659 267.786 163.831 266.788 153.564C264.746 134.704 255.25 127.288 237.419 123.388C235.053 109.099 235.012 104.549 227.031 95.0912C222.263 89.4413 212.888 83.0004 202.087 80.8877C178.656 76.3034 162.161 87.2764 151.969 105.993C99.9978 98.3982 83.7571 162.159 121.717 182.433C139.179 191.76 168.101 188.526 189.592 188.525C218.161 188.524 238.746 192.458 256.044 179.77Z" fill="white"/>
<path fill-rule="evenodd" clip-rule="evenodd" d="M228.397 218.598C242.653 213.881 247.435 235.144 235.768 239.486C221.649 244.74 213.898 223.396 228.397 218.598ZM238.454 248.974C265.073 240.407 251.685 199.681 223.991 208.994C199.136 217.351 211.294 257.717 238.454 248.974Z" fill="white"/>
<path fill-rule="evenodd" clip-rule="evenodd" d="M105.46 221.652C104.193 210.368 120.828 209.057 122.09 219.226C123.508 230.665 106.568 231.53 105.46 221.652ZM107.33 238.113C130.806 246.538 143.695 211.137 119.986 202.529C97.0005 194.185 84.5844 229.95 107.33 238.113Z" fill="white"/>
<path fill-rule="evenodd" clip-rule="evenodd" d="M181.662 266.456C188.926 258.084 199.457 267.194 194.836 274.463C189.026 283.97 176.897 276.969 181.662 266.456ZM170.62 271.067C170.707 293.701 206.551 295.844 206.699 270.987C206.84 247.138 170.528 247.289 170.62 271.067Z" fill="white"/>
<path fill-rule="evenodd" clip-rule="evenodd" d="M137.589 256.67C129.816 256.112 131.404 267.727 136.872 268.178C145.189 269.033 146.144 256.936 137.589 256.67Z" fill="white"/>
<path fill-rule="evenodd" clip-rule="evenodd" d="M168.214 221.372C162.341 221.615 161.87 229.395 168.106 229.828C175.114 230.317 173.416 221.157 168.214 221.372Z" fill="white"/>
</svg>
