<svg width="360" height="360" viewBox="0 0 360 360" fill="none" xmlns="http://www.w3.org/2000/svg">
<rect width="360" height="360" rx="180" fill="#FFDC5E"/>
<path fill-rule="evenodd" clip-rule="evenodd" d="M150.713 277.613L139.069 265.661C133.487 260.35 133.854 254.504 133.591 246.499L179.709 246.586C177.865 251.703 173.555 265.56 170.782 268.286C168.637 270.395 154.99 276.744 150.713 277.613ZM182.065 268.344C185.762 262.094 186.965 254.129 190.645 246.726L241.965 246.474C239.581 257.432 215.165 282.967 200.715 276.174C194.054 273.042 187.654 271.117 182.065 268.344ZM46.4226 246.156L123.131 246.765L125.321 263.351C120.002 264.29 114.753 266.714 109.402 267.254C102.083 267.994 97.6998 264.003 92.5984 267.708C87.7708 285.048 122.753 273.392 130.849 272.391C133.189 274.308 142.881 281.67 143.822 285.048C145.911 292.549 137.556 300.228 142.892 307.659C155.003 311.911 149.847 293.906 155.523 287.751C155.529 287.744 174.06 277.187 179.589 278.489C183.676 279.451 200.343 286.356 202.654 290.151C207.788 298.583 207.814 308.217 213.821 308.782C221.587 309.512 219.166 301.946 216.969 297.572C214.993 293.643 214.034 290.808 212.392 286.695C217.663 284.787 222.602 282.245 227.005 279.054L240.378 269.162C247.346 273.154 248.394 278.972 260.304 280.834C270.011 282.352 283.528 283.509 279.658 272.089C273.045 270.03 268.183 273.157 259.979 270.407C254.288 268.5 251.974 264.702 246.597 262.293L253.339 246.492L313.859 246.264C308.867 260.216 296.335 275.741 286.339 284.805C278.129 292.247 283.747 290.207 264.067 303.885C214.904 338.054 147.313 338.421 97.2124 304.711C78.4575 292.092 53.7138 266.978 46.4226 246.156ZM181.403 76.2802L181.49 174.787C175.484 168.517 170.697 162.905 164.13 156.532C155.153 147.822 155.048 152.437 152.601 132.109C151.459 122.614 150.897 108.849 148.285 100.412C146.668 95.1876 144.908 93.4692 141.987 89.2165C138.468 84.0942 138.367 80.9991 131.371 80.176C123.604 91.3181 130.421 85.9363 137.715 102.73C140.915 110.099 141.929 126.412 143.133 135.487L116.347 108.084C112.236 103.593 111.796 101.363 103.461 101.385C100.057 109.53 106.346 113.948 118.237 126.232L140.162 148.1L100.765 140.714C93.4063 139.947 92.2193 142.049 93.0214 149.2C105.364 153.352 131.519 156.226 146.663 159.412C157.405 161.672 158.916 168.262 164.155 173.927L180.761 189.413L181.438 236.404L41.3871 236.194C17.7265 167.732 33.1727 113.519 79.9119 68.2366C103.373 45.5069 146.878 30.5605 180.353 30.3374C209.636 30.1429 232.487 38.5833 252.758 49.4972C272.009 59.8613 288.58 75.8096 301.446 92.8935C313.321 108.661 324.923 133.202 328.264 158.177C331.042 178.949 328.939 220.702 318.161 235.913L191.414 236.282L191.386 208.174C198.792 203.611 204.572 195.919 210.54 189.1C219.031 179.401 243.291 163.765 255.8 156.97C263.932 152.553 280.464 149.057 274.686 139.674C267.31 136.753 246.341 150.819 238.609 153.934C243.206 143.736 264.538 104.212 257.953 98.5522C247.035 89.1693 242.897 133.31 229.53 146.776C228.44 140.299 227.59 119.905 220.355 119.575C210.915 119.145 218.455 142.162 219.796 147.611C223.653 163.294 219.404 165.789 211.136 173.698C205.72 178.879 197.096 189.096 191.348 192.736L191.483 151.029C191.454 141.032 194.53 138.051 198.855 130.701C202.601 124.335 205.795 119.453 210.222 114.032C214.472 108.829 218.425 103.905 222.264 98.0123C226.387 91.6814 233.447 85.6345 225.842 79.5661C219.46 80.4028 218.521 84.195 215.562 88.7996L199.86 110.454C198.621 112.319 197.774 113.703 196.128 115.999L191.252 122.083C191.359 110.293 192.954 70.6437 189.807 62.8461L182.889 62.5272C181.161 66.9029 181.383 70.7195 181.402 76.2809L181.403 76.2802ZM20.7033 192.407C28.5902 276.832 98.5866 346.358 192.449 339.537C231.878 336.672 275.745 316.47 299.761 286.089C306.306 277.809 310.499 273.344 316.776 263.039C333.425 235.7 342.105 200.32 339.563 167.083C333.293 85.0889 258.853 12.0336 167.409 20.7006C144.828 22.841 121.421 29.1417 104.979 38.4453C48.6683 70.3062 14.6012 127.091 20.7033 192.407Z" fill="white"/>
</svg>
