<svg width="360" height="360" viewBox="0 0 360 360" fill="none" xmlns="http://www.w3.org/2000/svg">
<rect width="360" height="360" rx="180" fill="#10EF99"/>
<path fill-rule="evenodd" clip-rule="evenodd" d="M59.721 267.846L300.226 268.026C295.935 279.182 267.069 302.738 253.194 310.382C209.833 334.272 152.959 336.855 108.921 311.512C99.7191 306.217 88.3084 298.873 82.0793 292.937C70.9797 282.36 63.7954 275.011 59.721 267.846ZM136.781 187.91C137.852 185.427 138.934 181.793 140.083 178.707C141.617 174.593 143.749 171.781 144.432 169.328L144.823 94.1326L250.979 94.0138L251.196 257.508L178.936 257.661C174.884 250.018 172.277 237.815 152.434 231.087C155.12 225.491 158.984 219.608 161.936 213.967C165.159 207.809 170.348 202.274 167.591 195.59C159.817 191.41 145.343 191.834 136.781 187.91ZM92.59 169.778L132.848 170.147C119.354 206.892 123.011 193.802 155.394 203.734C152.155 209.59 139.143 229.344 140.794 235.469C147.56 244.598 162.232 242.884 167.941 257.6L92.7455 257.37L92.59 169.778ZM134.429 159.878C129.879 159.258 91.6534 158.083 85.6858 160.079C85.3906 160.179 84.828 160.943 84.6202 160.626C79.8651 153.337 82.2377 252.824 82.3595 257.784L52.2257 257.414C24.9173 207.428 20.7454 149.476 52.4062 100.511C80.3639 57.2727 126.668 29.9308 181.612 30.3287C264.46 30.9292 331.304 98.8007 329.613 181.592C329.133 205.074 321.382 239.783 307.338 257.443L261.284 257.734C262.424 208.717 261.12 121.346 260.096 86.2452C236.054 85.6132 158.012 85.5974 136.531 85.9832C134.48 93.2286 136.387 137.95 135.978 152.296C135.924 154.17 135.898 155.359 135.513 157.195C134.947 159.896 135.128 158.896 134.429 159.878ZM169.266 20.2747C138.693 21.9624 91.5918 39.1917 71.1646 61.8728C55.8759 78.848 42.0898 89.9498 30.4083 121.492C-10.4375 231.784 74.2981 347.735 191.018 339.595C274.979 333.739 346.598 260.584 339.516 168.152C332.936 82.2721 262.045 15.1536 169.266 20.2747Z" fill="white"/>
<path fill-rule="evenodd" clip-rule="evenodd" d="M213.539 179.1L223.197 179.119L223.038 200.074L213.421 200.072L213.539 179.1ZM231.908 209.084C231.743 201.152 233.869 181.164 233.253 172.508C226.456 171.79 211.111 170.866 204.721 171.509C204.746 179.505 203.579 202.566 204.422 207.665C213.08 208.091 221.753 209.231 231.908 209.084Z" fill="white"/>
<path fill-rule="evenodd" clip-rule="evenodd" d="M172.459 125.063L180.44 125.02L180.462 142.543L172.471 142.633L172.459 125.063ZM163.117 149.674C167.789 150.569 182.452 151.221 187.214 150.656C188.681 139.248 188.499 130.127 188.755 116.116C184.387 114.513 166.964 115.056 163.008 116.232C163.493 124.25 162.25 142.994 163.117 149.674Z" fill="white"/>
<path fill-rule="evenodd" clip-rule="evenodd" d="M214.07 125.463L223.624 125.28L223.916 142.839L214.109 142.715L214.07 125.463ZM206.248 149.831L231.35 150.446C232.03 144.204 230.763 125.979 231.104 117.055C225.405 116.206 211.91 116.047 205.839 117.106L206.248 149.831Z" fill="white"/>
</svg>
