<svg width="360" height="360" viewBox="0 0 360 360" fill="none" xmlns="http://www.w3.org/2000/svg">
<rect width="360" height="360" rx="180" fill="#00F5F5"/>
<path fill-rule="evenodd" clip-rule="evenodd" d="M84.0782 294.683C92.6153 293.709 98.7101 294.983 108.778 292.687C117.057 290.799 123.92 288.156 131.516 286.042C153.72 279.863 161.827 291.522 181.082 294.136C203.091 297.124 209.386 287.078 227.185 283.961C247.523 280.399 256.707 295.377 275.12 294.704C274.198 295.775 274.346 295.851 272.993 297.199L265.84 302.313C253.837 310.094 248.404 313.798 233.757 319.581C148.935 353.067 90.1981 297.08 84.0774 294.684L84.0782 294.683ZM294.899 275.109C293.116 279.126 294.657 276.378 291.49 279.775C278.915 293.262 259.828 278.041 244.535 275.061L254.88 275.051C269.362 276.774 280.197 276.286 294.899 275.109ZM245.968 239.477L259.652 239.454L260.885 266.752L245.256 265.134L245.968 239.477ZM235.296 263.571C229.051 262.827 221.34 261.413 216.751 258.765C218.587 247.942 217.744 223.449 216.564 211.811L246.911 188.524C249.704 186.146 247.815 187.024 250.855 184.946C256.77 189.103 262.375 193.611 268.93 198.394C274.097 202.164 283.973 210.5 288.518 212.251L288.427 266.413L268.773 266.379C268.417 258.693 268.554 258.998 268.396 247.17C268.319 241.366 267.399 236.067 267.555 230.649L238.887 229.899C236.202 237.701 237.871 264.508 235.295 263.569L235.296 263.571ZM200.474 211.89C192.587 218.144 195.833 230.981 205.934 223.234C206.17 223.053 206.51 222.666 206.815 222.4L206.961 253.887C197.536 250.845 180.256 236.09 173.08 228.445C141.218 194.505 141.897 112.61 204.042 128.352C194.405 132.789 186.559 129.03 179.22 139.825C173.933 147.602 170.114 156.464 170.344 168.341C170.804 192.047 186.822 202.46 200.474 211.89ZM240.514 273.514C204.389 272.421 203.32 293.29 166.496 278.97C130.155 264.837 123.652 284.676 92.7286 284.366C79.0739 284.23 66.9961 277.047 61.3547 270.487C48.5932 255.645 37.4639 230.599 33.3471 210.36C28.7933 187.975 28.8852 192.121 39.797 179.709L66.5756 148.985C68.8134 146.238 68.8529 145.827 71.4565 143.125L86.7945 124.963C99.0624 111.456 113.214 99.0713 130.588 91.2832C161.784 77.3011 210.087 81.1995 228.1 110.79C233.299 119.332 237.747 138.222 230.243 146.982C227.772 131.972 222.584 124.621 210.586 120.139C198.432 115.599 184.107 115 171.323 119.751C130.997 134.738 122.957 223.866 203.371 263.816C214.377 269.284 229.198 270.311 240.514 273.514ZM31.0325 176.044C28.1835 169.055 33.7309 147.583 35.9752 139.649C39.5051 127.17 43.7711 119.056 48.8909 108.554C57.4165 91.0664 74.8803 72.2049 90.3423 60.5148C199.17 -21.7632 348.023 74.0403 327.807 205.238C325.175 222.324 311.586 262.145 299.186 266.331L298.938 221.124C309.009 227.871 312.986 218.741 304.281 211.124C299.237 206.71 253.971 173.128 250.751 173.244C247.602 173.357 217.666 198.785 209.236 204.536C164.315 179.849 180.958 143.382 197.716 139.682C226.58 133.31 217.927 161.584 226.916 163.894C241.82 167.724 263.667 109.963 212.813 83.2066C176.713 64.2135 131.853 72.3494 99.7963 97.8742C81.1502 112.721 63.1943 138.185 48.3385 156.224C42.0406 163.871 36.5254 169.542 31.0325 176.044ZM20.7147 196.418C28.8837 282.294 108.727 348.184 197.021 339.175C278.372 330.874 350.037 256.05 338.842 163.281C332.688 112.276 308.606 82.2922 283.112 58.5627C257.719 34.9278 211.683 15.4667 163.442 20.9264C117.213 26.1586 87.2206 45.2211 58.9992 76.0396C34.8724 102.387 16.0462 147.331 20.7147 196.416V196.418Z" fill="white"/>
</svg>
